# This file uses centimeters as units for non-parametric coordinates.

mtllib TrilliumFlower.mtl
g default
v -0.103845 0.475793 0.913696
v -0.014674 0.475793 0.919334
v -0.103845 0.481099 0.913696
v -0.014674 0.481099 0.919334
v -0.058494 0.002653 -0.020937
v 0.058049 0.002653 -0.013568
v -0.058494 -0.002653 -0.020937
v 0.058049 -0.002653 -0.013568
v 0.000462 0.002653 -0.017209
v 0.000462 -0.002653 -0.017209
v -0.058735 0.475793 0.916548
v -0.058735 0.481099 0.916548
v -0.327031 0.510226 0.520694
v -0.327031 0.504920 0.520694
v -0.031972 0.504920 0.539349
v 0.256232 0.504920 0.557570
v 0.256232 0.510226 0.557570
v -0.031972 0.510226 0.539349
v -0.303010 0.266164 0.140902
v -0.303010 0.260859 0.140902
v -0.007960 0.260859 0.159556
v 0.280235 0.260859 0.177777
v 0.280235 0.266164 0.177777
v -0.007960 0.266164 0.159556
v -0.101737 0.206475 0.079398
v 0.075079 0.206475 0.079398
v -0.101737 0.206475 -0.097419
v 0.075079 0.206475 -0.097419
v 0.100690 0.206475 -0.007151
v -0.127348 0.206475 -0.007151
v -0.007234 0.206475 -0.125439
v -0.007234 0.206475 0.107418
v -0.007234 0.206475 -0.007151
v -0.750240 0.475793 -0.587473
v -0.800645 0.475793 -0.513700
v -0.750240 0.481099 -0.587473
v -0.800645 0.481099 -0.513700
v 0.030028 0.002653 -0.070969
v -0.035850 0.002653 0.025450
v 0.030028 -0.002653 -0.070969
v -0.035850 -0.002653 0.025450
v -0.003298 0.002653 -0.022193
v -0.003298 -0.002653 -0.022193
v -0.775739 0.475793 -0.550153
v -0.775739 0.481099 -0.550153
v -0.298374 0.510226 -0.578539
v -0.298374 0.504920 -0.578539
v -0.465160 0.504920 -0.334429
v -0.628073 0.504920 -0.095990
v -0.628073 0.510226 -0.095990
v -0.465160 0.510226 -0.334429
v 0.015834 0.266164 -0.363849
v 0.015834 0.260859 -0.363849
v -0.150948 0.260859 -0.119746
v -0.313855 0.260859 0.118687
v -0.313855 0.266164 0.118687
v -0.150948 0.266164 -0.119746
v 0.859340 0.475793 -0.402276
v 0.819247 0.475793 -0.482124
v 0.859340 0.481099 -0.402276
v 0.819247 0.481099 -0.482124
v 0.029351 0.002653 0.029827
v -0.023050 0.002653 -0.074532
v 0.029351 -0.002653 0.029827
v -0.023050 -0.002653 -0.074532
v 0.002842 0.002653 -0.022966
v 0.002842 -0.002653 -0.022966
v 0.839058 0.475793 -0.442670
v 0.839058 0.481099 -0.442670
v 0.632491 0.510226 -0.011377
v 0.632491 0.504920 -0.011377
v 0.499824 0.504920 -0.275587
v 0.370240 0.504920 -0.533660
v 0.370240 0.510226 -0.533660
v 0.499824 0.510226 -0.275587
v 0.292402 0.266164 0.159380
v 0.292402 0.260859 0.159380
v 0.159739 0.260859 -0.104822
v 0.030158 0.260859 -0.362887
v 0.030158 0.266164 -0.362887
v 0.159739 0.266164 -0.104822
vt 0.552935 0.082537
vt 0.594229 0.082822
vt 0.546758 0.568244
vt 0.600784 0.568059
vt 0.690524 0.478915
vt 0.744654 0.476002
vt 0.706342 0.961003
vt 0.747557 0.959514
vt 0.574047 0.567030
vt 0.718094 0.476628
vt 0.727183 0.959593
vt 0.573892 0.083598
vt 0.447209 0.242946
vt 0.596326 0.803921
vt 0.723226 0.802348
vt 0.846781 0.798660
vt 0.700027 0.242911
vt 0.575086 0.241947
vt 0.448176 0.435162
vt 0.593058 0.610085
vt 0.720400 0.608618
vt 0.843989 0.607179
vt 0.699161 0.435053
vt 0.575120 0.436417
vt 0.025602 0.312679
vt 0.093116 0.292661
vt 0.093116 0.374510
vt 0.007306 0.374510
vt 0.093116 0.459014
vt 0.025602 0.438997
vt 0.151920 0.312679
vt 0.170216 0.374510
vt 0.151920 0.438997
vt 0.313219 0.634980
vt 0.419147 0.474368
vt 0.439948 0.474937
vt 0.441230 0.633357
vt 0.860162 0.579913
vt 0.839268 0.581262
vt 0.730488 0.424410
vt 0.858092 0.423579
vt 0.880645 0.580295
vt 0.982614 0.419924
vt 0.460333 0.474650
vt 0.566285 0.634964
vt 0.727341 0.232854
vt 0.854412 0.230587
vt 0.978047 0.228214
vt 0.441272 0.827071
vt 0.565014 0.826039
vt 0.314622 0.826159
vt 0.824129 0.100207
vt 0.851646 0.098082
vt 0.877982 0.097359
vt 0.440153 0.957904
vt 0.466876 0.958765
vt 0.413000 0.958941
vt 0.182409 0.240634
vt 0.288756 0.079012
vt 0.309608 0.079924
vt 0.310809 0.238817
vt 0.175073 0.953603
vt 0.154273 0.955432
vt 0.042826 0.798448
vt 0.170206 0.796882
vt 0.195429 0.953627
vt 0.293743 0.792798
vt 0.329812 0.079399
vt 0.436241 0.240642
vt 0.040271 0.605887
vt 0.167470 0.604678
vt 0.290968 0.604034
vt 0.310827 0.432543
vt 0.434527 0.431489
vt 0.184226 0.431608
vt 0.138384 0.475012
vt 0.165971 0.473185
vt 0.192650 0.472572
vt 0.309805 0.563178
vt 0.336331 0.564057
vt 0.282614 0.564236
vn 0.025914 0.911774 -0.409875
vn -0.004846 0.997047 0.076646
vn -0.004846 0.997047 0.076646
vn 0.022400 0.934868 -0.354287
vn 0.004846 -0.997047 -0.076646
vn 0.004846 -0.997047 -0.076646
vn -0.025914 -0.911774 0.409875
vn -0.022400 -0.934868 0.354287
vn 0.004846 -0.997047 -0.076646
vn -0.025914 -0.911774 0.409875
vn -0.004846 0.997047 0.076646
vn 0.025914 0.911774 -0.409875
vn -0.038249 -0.795331 0.604968
vn -0.040191 -0.770899 0.635688
vn -0.038249 -0.795331 0.604968
vn 0.040191 0.770899 -0.635688
vn 0.038249 0.795331 -0.604968
vn 0.038249 0.795331 -0.604968
vn -0.052384 -0.557468 0.828544
vn -0.052384 -0.557468 0.828544
vn -0.052384 -0.557468 0.828544
vn 0.052384 0.557468 -0.828544
vn 0.052384 0.557468 -0.828544
vn 0.052384 0.557468 -0.828544
vn 0.000000 1.000000 -0.000000
vn 0.000000 1.000000 -0.000000
vn 0.000000 1.000000 0.000000
vn 0.000000 1.000000 0.000000
vn 0.000000 1.000000 0.000000
vn 0.000000 1.000000 0.000000
vn 0.000000 1.000000 0.000000
vn 0.000000 1.000000 0.000000
vn 0.000000 1.000000 0.000000
vn 0.339101 0.911774 0.231688
vn -0.063412 0.997047 -0.043326
vn -0.063412 0.997047 -0.043325
vn 0.293112 0.934868 0.200267
vn 0.063412 -0.997047 0.043326
vn 0.063412 -0.997047 0.043326
vn -0.339101 -0.911774 -0.231688
vn -0.293112 -0.934868 -0.200267
vn 0.063412 -0.997047 0.043326
vn -0.339101 -0.911774 -0.231688
vn -0.063412 0.997047 -0.043325
vn 0.339101 0.911774 0.231688
vn -0.500507 -0.795331 -0.341968
vn -0.525923 -0.770899 -0.359333
vn -0.500507 -0.795331 -0.341968
vn 0.525923 0.770899 0.359333
vn 0.500507 0.795331 0.341968
vn 0.500507 0.795331 0.341968
vn -0.685478 -0.557468 -0.468348
vn -0.685478 -0.557468 -0.468348
vn -0.685478 -0.557468 -0.468348
vn 0.685478 0.557468 0.468348
vn 0.685478 0.557468 0.468348
vn 0.685478 0.557468 0.468348
vn -0.367023 0.911774 0.184291
vn 0.068633 0.997047 -0.034462
vn 0.068633 0.997047 -0.034462
vn -0.317247 0.934868 0.159297
vn -0.068633 -0.997047 0.034462
vn -0.068633 -0.997047 0.034462
vn 0.367023 -0.911774 -0.184291
vn 0.317247 -0.934868 -0.159297
vn -0.068633 -0.997047 0.034462
vn 0.367023 -0.911774 -0.184291
vn 0.068633 0.997047 -0.034462
vn -0.367023 0.911774 0.184291
vn 0.541719 -0.795331 -0.272010
vn 0.569228 -0.770899 -0.285823
vn 0.541719 -0.795331 -0.272010
vn -0.569228 0.770899 0.285823
vn -0.541719 0.795331 0.272010
vn -0.541719 0.795331 0.272010
vn 0.741920 -0.557468 -0.372536
vn 0.741920 -0.557468 -0.372536
vn 0.741920 -0.557468 -0.372536
vn -0.741920 0.557468 0.372536
vn -0.741920 0.557468 0.372536
vn -0.741920 0.557468 0.372536
s 1
g pCube7
usemtl initialShadingGroup
f 13/13/1 3/1/2 12/12/3 18/18/4
s 2
f 11/11/5 1/7/6 14/14/7 15/15/8
f 2/8/9 11/11/5 15/15/8 16/16/10
s 1
f 12/12/3 4/2/11 17/17/12 18/18/4
s 2
f 20/20/13 21/21/14 15/15/8 14/14/7
f 16/16/10 15/15/8 21/21/14 22/22/15
s 1
f 24/24/16 18/18/4 17/17/12 23/23/17
f 13/13/1 18/18/4 24/24/16 19/19/18
s 2
f 7/5/19 10/10/20 21/21/14 20/20/13
f 22/22/15 21/21/14 10/10/20 8/6/21
s 1
f 9/9/22 24/24/16 23/23/17 6/4/23
f 19/19/18 24/24/16 9/9/22 5/3/24
s 3
f 25/25/25 32/26/26 33/27/27 30/28/28
f 30/28/28 33/27/27 31/29/29 27/30/30
f 33/27/27 32/26/26 26/31/31 29/32/32
f 31/29/29 33/27/27 29/32/32 28/33/33
s 4
f 46/34/34 36/35/35 45/36/36 51/37/37
s 5
f 44/38/38 34/39/39 47/40/40 48/41/41
f 35/42/42 44/38/38 48/41/41 49/43/43
s 4
f 45/36/36 37/44/44 50/45/45 51/37/37
s 5
f 53/46/46 54/47/47 48/41/41 47/40/40
f 49/43/43 48/41/41 54/47/47 55/48/48
s 4
f 57/49/49 51/37/37 50/45/45 56/50/50
f 46/34/34 51/37/37 57/49/49 52/51/51
s 5
f 40/52/52 43/53/53 54/47/47 53/46/46
f 55/48/48 54/47/47 43/53/53 41/54/54
s 4
f 42/55/55 57/49/49 56/50/50 39/56/56
f 52/51/51 57/49/49 42/55/55 38/57/57
s 6
f 70/58/58 60/59/59 69/60/60 75/61/61
s 7
f 68/62/62 58/63/63 71/64/64 72/65/65
f 59/66/66 68/62/62 72/65/65 73/67/67
s 6
f 69/60/60 61/68/68 74/69/69 75/61/61
s 7
f 77/70/70 78/71/71 72/65/65 71/64/64
f 73/67/67 72/65/65 78/71/71 79/72/72
s 6
f 81/73/73 75/61/61 74/69/69 80/74/74
f 70/58/58 75/61/61 81/73/73 76/75/75
s 7
f 64/76/76 67/77/77 78/71/71 77/70/70
f 79/72/72 78/71/71 67/77/77 65/78/78
s 6
f 66/79/79 81/73/73 80/74/74 63/80/80
f 76/75/75 81/73/73 66/79/79 62/81/81
